<svg width="1280" height="720" viewBox="0 0 1280 720" fill="none" xmlns="http://www.w3.org/2000/svg">
    <g clip-path="url(#clip0_24_2)">
    <path d="M1280 0H0V720H1280V0Z" fill="#0F1011"/>
    <path d="M1280 0H0V720H1280V0Z" fill="#0F1011"/>
    <path d="M31.1279 51.256C32.1359 51.24 32.7599 51.12 32.9999 50.896C33.2559 50.656 33.3839 50.096 33.3839 49.216V38.464C33.3839 37.584 33.2559 37.032 32.9999 36.808C32.7599 36.568 32.1359 36.44 31.1279 36.424V35.68H37.5119C40.5999 35.68 42.9839 36.408 44.6639 37.864C46.3599 39.304 47.2079 41.336 47.2079 43.96C47.2079 46.488 46.3599 48.464 44.6639 49.888C42.9679 51.296 40.6079 52 37.5839 52H31.1279V51.256ZM35.3759 48.616C35.3759 49.544 35.5679 50.2 35.9519 50.584C36.3359 50.968 36.9839 51.16 37.8959 51.16C39.9759 51.16 41.6559 50.504 42.9359 49.192C44.2159 47.864 44.8559 46.128 44.8559 43.984C44.8559 41.68 44.1919 39.864 42.8639 38.536C41.5519 37.208 39.7439 36.544 37.4399 36.544H35.3759V48.616ZM50.5042 57.16C49.8482 57.16 49.3122 57 48.8962 56.68C48.4961 56.36 48.2961 55.936 48.2961 55.408C48.2961 55.008 48.4081 54.696 48.6321 54.472C48.8562 54.264 49.1602 54.16 49.5442 54.16C49.8642 54.16 50.1202 54.256 50.3122 54.448C50.5042 54.64 50.6962 54.896 50.8882 55.216C51.0962 55.552 51.3202 55.808 51.5602 55.984C52.0082 55.744 52.4242 55.288 52.8082 54.616C53.2082 53.96 53.7042 52.944 54.2962 51.568L54.3202 51.52L50.8402 43.384C50.4882 42.568 50.1922 42.016 49.9522 41.728C49.7282 41.44 49.4402 41.288 49.0882 41.272V40.624H54.0802V41.272C53.0562 41.32 52.5442 41.648 52.5442 42.256C52.5442 42.512 52.6322 42.856 52.8082 43.288L55.2562 49.288L57.8002 43.216C57.9602 42.832 58.0402 42.512 58.0402 42.256C58.0402 41.616 57.5042 41.288 56.4322 41.272V40.624H60.4162V41.272C60.0802 41.304 59.8082 41.456 59.6002 41.728C59.4082 41.984 59.1442 42.52 58.8082 43.336L55.0162 52.384C54.2962 54.112 53.5842 55.336 52.8802 56.056C52.1922 56.792 51.4002 57.16 50.5042 57.16ZM61.0475 51.352C61.8155 51.304 62.3195 51.184 62.5595 50.992C62.7995 50.784 62.9195 50.304 62.9195 49.552V37.336C62.8715 36.936 62.7275 36.672 62.4875 36.544C62.2635 36.416 61.8395 36.352 61.2155 36.352V35.8L64.1435 34.96H64.6715V49.552C64.6715 50.32 64.7755 50.8 64.9835 50.992C65.2075 51.184 65.7275 51.304 66.5435 51.352V52H61.0475V51.352ZM76.8203 52.24C76.2443 52.24 75.7723 52.056 75.4043 51.688C75.0363 51.32 74.8283 50.768 74.7803 50.032C74.4283 50.768 73.9563 51.336 73.3643 51.736C72.7723 52.136 72.1323 52.336 71.4443 52.336C70.5963 52.336 69.9083 52.104 69.3803 51.64C68.8683 51.176 68.6123 50.552 68.6123 49.768C68.6123 48.968 68.8843 48.32 69.4283 47.824C69.9883 47.328 70.8283 46.896 71.9483 46.528L74.7803 45.616V44.464C74.7803 42.512 73.9083 41.536 72.1643 41.536C71.3163 41.536 70.5483 41.76 69.8603 42.208C69.9083 42.56 70.1003 42.936 70.4363 43.336C70.7883 43.72 70.9643 44.072 70.9643 44.392C70.9643 44.744 70.8363 45.048 70.5803 45.304C70.3243 45.544 70.0123 45.664 69.6443 45.664C69.2123 45.664 68.8683 45.512 68.6123 45.208C68.3563 44.904 68.2283 44.512 68.2283 44.032C68.2283 43.056 68.7163 42.2 69.6923 41.464C70.6683 40.712 71.7243 40.336 72.8603 40.336C73.9963 40.336 74.8923 40.648 75.5483 41.272C76.2043 41.896 76.5323 42.864 76.5323 44.176V49.6C76.5323 50.064 76.5883 50.384 76.7003 50.56C76.8283 50.736 77.0283 50.824 77.3003 50.824C77.5883 50.824 77.8123 50.712 77.9723 50.488C78.1323 50.264 78.2763 49.888 78.4043 49.36L79.0523 49.552C78.9083 50.464 78.6763 51.144 78.3563 51.592C78.0523 52.024 77.5403 52.24 76.8203 52.24ZM70.5083 49.36C70.5083 49.84 70.6523 50.216 70.9403 50.488C71.2283 50.744 71.6283 50.872 72.1403 50.872C73.1963 50.872 74.0763 50.216 74.7803 48.904V46.552L72.7403 47.272C71.9563 47.544 71.3883 47.832 71.0363 48.136C70.6843 48.44 70.5083 48.848 70.5083 49.36ZM79.9147 51.352C80.6827 51.288 81.1707 51.152 81.3787 50.944C81.5867 50.736 81.6907 50.296 81.6907 49.624V43.36C81.6907 42.672 81.5787 42.232 81.3547 42.04C81.1467 41.848 80.6667 41.752 79.9147 41.752V41.2L82.8667 40.48H83.4427V42.64H83.4667C84.3307 41.104 85.5387 40.336 87.0907 40.336C88.1787 40.336 89.0267 40.68 89.6347 41.368C90.2587 42.056 90.5707 43.04 90.5707 44.32V49.624C90.5707 50.296 90.6667 50.736 90.8587 50.944C91.0507 51.152 91.5067 51.288 92.2267 51.352V52H87.0907V51.352C87.8427 51.288 88.3147 51.16 88.5067 50.968C88.7147 50.76 88.8187 50.312 88.8187 49.624V44.728C88.8187 43.816 88.6107 43.128 88.1947 42.664C87.7947 42.184 87.2187 41.944 86.4667 41.944C85.3787 41.944 84.3707 42.496 83.4427 43.6V49.624C83.4427 50.296 83.5467 50.736 83.7547 50.944C83.9627 51.152 84.4507 51.288 85.2187 51.352V52H79.9147V51.352ZM104.808 52.336C104.04 52.336 103.36 52.256 102.768 52.096C102.176 51.936 101.728 51.776 101.424 51.616C101.12 51.44 100.928 51.352 100.848 51.352C100.624 51.352 100.48 51.608 100.416 52.12H99.4801V46.288H100.488C100.808 49.664 102.256 51.352 104.832 51.352C105.808 51.352 106.56 51.12 107.088 50.656C107.616 50.192 107.88 49.544 107.88 48.712C107.88 47.992 107.696 47.368 107.328 46.84C106.96 46.312 106.352 45.84 105.504 45.424L103.008 44.128C101.856 43.536 101.008 42.864 100.464 42.112C99.9361 41.36 99.6721 40.464 99.6721 39.424C99.6721 38.176 100.104 37.184 100.968 36.448C101.848 35.712 103.064 35.344 104.616 35.344C105.304 35.344 105.92 35.424 106.464 35.584C107.024 35.744 107.448 35.912 107.736 36.088C108.04 36.248 108.232 36.328 108.312 36.328C108.488 36.328 108.624 36.072 108.72 35.56H109.632V40.768H108.648C108.488 39.232 108.088 38.112 107.448 37.408C106.808 36.688 105.872 36.328 104.64 36.328C103.712 36.328 102.968 36.568 102.408 37.048C101.848 37.512 101.568 38.136 101.568 38.92C101.568 39.608 101.744 40.2 102.096 40.696C102.464 41.176 103.08 41.64 103.944 42.088L106.56 43.432C107.664 44.008 108.472 44.664 108.984 45.4C109.512 46.12 109.776 46.984 109.776 47.992C109.776 49.352 109.336 50.416 108.456 51.184C107.592 51.952 106.376 52.336 104.808 52.336ZM116.562 52.336C115.538 52.336 114.714 51.992 114.09 51.304C113.482 50.616 113.178 49.632 113.178 48.352V42.76C113.178 42.248 113.082 41.888 112.89 41.68C112.698 41.456 112.346 41.304 111.834 41.224V40.624H114.93V47.896C114.93 49.784 115.674 50.728 117.162 50.728C118.218 50.728 119.194 50.184 120.09 49.096V42.856C120.09 42.232 119.978 41.832 119.754 41.656C119.546 41.464 119.09 41.328 118.386 41.248V40.624H121.842V49.336C121.842 50.072 121.962 50.552 122.202 50.776C122.442 50.984 122.938 51.088 123.69 51.088V51.712L120.426 52.144L120.09 51.88V50.032C119.642 50.832 119.138 51.416 118.578 51.784C118.018 52.152 117.346 52.336 116.562 52.336ZM129.668 52.24C128.788 52.24 128.1 51.968 127.604 51.424C127.108 50.88 126.86 50.112 126.86 49.12V42.208H124.676V41.368C126.436 41.144 127.452 40.224 127.724 38.608H128.612V40.624H132.044V42.208H128.612V48.736C128.612 49.376 128.756 49.872 129.044 50.224C129.332 50.56 129.732 50.728 130.244 50.728C131.012 50.728 131.708 50.392 132.332 49.72L132.788 50.152C132.308 50.888 131.828 51.424 131.348 51.76C130.884 52.08 130.324 52.24 129.668 52.24ZM138.833 52.24C137.953 52.24 137.265 51.968 136.769 51.424C136.273 50.88 136.025 50.112 136.025 49.12V42.208H133.841V41.368C135.601 41.144 136.617 40.224 136.889 38.608H137.777V40.624H141.209V42.208H137.777V48.736C137.777 49.376 137.921 49.872 138.209 50.224C138.497 50.56 138.897 50.728 139.409 50.728C140.177 50.728 140.873 50.392 141.497 49.72L141.953 50.152C141.473 50.888 140.993 51.424 140.513 51.76C140.049 52.08 139.489 52.24 138.833 52.24ZM152.563 50.68C151.571 51.784 150.259 52.336 148.627 52.336C146.995 52.336 145.683 51.792 144.691 50.704C143.699 49.6 143.203 48.152 143.203 46.36C143.203 44.552 143.699 43.096 144.691 41.992C145.699 40.888 147.019 40.336 148.651 40.336C150.283 40.336 151.595 40.888 152.587 41.992C153.579 43.08 154.075 44.52 154.075 46.312C154.075 48.12 153.571 49.576 152.563 50.68ZM145.291 45.928C145.291 47.432 145.595 48.728 146.203 49.816C146.827 50.888 147.699 51.424 148.819 51.424C149.667 51.424 150.403 51.056 151.027 50.32C151.667 49.568 151.987 48.376 151.987 46.744C151.987 45.24 151.675 43.952 151.051 42.88C150.443 41.792 149.579 41.248 148.459 41.248C147.611 41.248 146.867 41.624 146.227 42.376C145.603 43.112 145.291 44.296 145.291 45.928ZM155.782 51.352C156.55 51.288 157.038 51.152 157.246 50.944C157.454 50.736 157.558 50.296 157.558 49.624V43.36C157.558 42.672 157.446 42.232 157.222 42.04C157.014 41.848 156.534 41.752 155.782 41.752V41.2L158.734 40.48H159.31V42.64H159.334C160.198 41.104 161.406 40.336 162.958 40.336C164.046 40.336 164.894 40.68 165.502 41.368C166.126 42.056 166.438 43.04 166.438 44.32V49.624C166.438 50.296 166.534 50.736 166.726 50.944C166.918 51.152 167.374 51.288 168.094 51.352V52H162.958V51.352C163.71 51.288 164.182 51.16 164.374 50.968C164.582 50.76 164.686 50.312 164.686 49.624V44.728C164.686 43.816 164.478 43.128 164.062 42.664C163.662 42.184 163.086 41.944 162.334 41.944C161.246 41.944 160.238 42.496 159.31 43.6V49.624C159.31 50.296 159.414 50.736 159.622 50.944C159.83 51.152 160.318 51.288 161.086 51.352V52H155.782V51.352ZM183.699 52.336C181.107 52.336 179.027 51.568 177.459 50.032C175.891 48.496 175.107 46.472 175.107 43.96C175.107 41.416 175.907 39.344 177.507 37.744C179.107 36.144 181.187 35.344 183.747 35.344C184.563 35.344 185.331 35.424 186.051 35.584C186.771 35.744 187.339 35.912 187.755 36.088C188.187 36.248 188.443 36.328 188.523 36.328C188.667 36.328 188.771 36.28 188.835 36.184C188.899 36.072 188.963 35.864 189.027 35.56H189.939V40.768H188.955C188.651 39.248 188.067 38.128 187.203 37.408C186.339 36.688 185.179 36.328 183.723 36.328C181.787 36.328 180.259 36.992 179.139 38.32C178.019 39.648 177.459 41.472 177.459 43.792C177.459 46.144 178.035 47.992 179.187 49.336C180.355 50.68 181.939 51.352 183.939 51.352C185.459 51.352 186.651 50.952 187.515 50.152C188.379 49.336 188.987 48.048 189.339 46.288H190.347L190.179 50.824C188.259 51.832 186.099 52.336 183.699 52.336ZM192.344 51.352C193.048 51.288 193.512 51.16 193.736 50.968C193.96 50.76 194.072 50.328 194.072 49.672V37.336C194.024 36.936 193.88 36.672 193.64 36.544C193.416 36.416 192.992 36.352 192.368 36.352V35.8L195.296 34.96H195.824V42.64C196.688 41.104 197.896 40.336 199.448 40.336C200.536 40.336 201.384 40.68 201.992 41.368C202.616 42.056 202.928 43.04 202.928 44.32V49.624C202.928 50.296 203.024 50.736 203.216 50.944C203.408 51.152 203.864 51.288 204.584 51.352V52H199.448V51.352C200.2 51.288 200.672 51.16 200.864 50.968C201.072 50.76 201.176 50.312 201.176 49.624V44.728C201.176 43.816 200.968 43.128 200.552 42.664C200.152 42.184 199.576 41.944 198.824 41.944C197.752 41.944 196.752 42.488 195.824 43.576V49.672C195.824 50.344 195.92 50.776 196.112 50.968C196.304 51.16 196.76 51.288 197.48 51.352V52H192.344V51.352ZM214.914 52.24C214.338 52.24 213.866 52.056 213.498 51.688C213.13 51.32 212.922 50.768 212.874 50.032C212.522 50.768 212.05 51.336 211.458 51.736C210.866 52.136 210.226 52.336 209.538 52.336C208.69 52.336 208.002 52.104 207.474 51.64C206.962 51.176 206.706 50.552 206.706 49.768C206.706 48.968 206.978 48.32 207.522 47.824C208.082 47.328 208.922 46.896 210.042 46.528L212.874 45.616V44.464C212.874 42.512 212.002 41.536 210.258 41.536C209.41 41.536 208.642 41.76 207.954 42.208C208.002 42.56 208.194 42.936 208.53 43.336C208.882 43.72 209.058 44.072 209.058 44.392C209.058 44.744 208.93 45.048 208.674 45.304C208.418 45.544 208.106 45.664 207.738 45.664C207.306 45.664 206.962 45.512 206.706 45.208C206.45 44.904 206.322 44.512 206.322 44.032C206.322 43.056 206.81 42.2 207.786 41.464C208.762 40.712 209.818 40.336 210.954 40.336C212.09 40.336 212.986 40.648 213.642 41.272C214.298 41.896 214.626 42.864 214.626 44.176V49.6C214.626 50.064 214.682 50.384 214.794 50.56C214.922 50.736 215.122 50.824 215.394 50.824C215.682 50.824 215.906 50.712 216.066 50.488C216.226 50.264 216.37 49.888 216.498 49.36L217.146 49.552C217.002 50.464 216.77 51.144 216.45 51.592C216.146 52.024 215.634 52.24 214.914 52.24ZM208.602 49.36C208.602 49.84 208.746 50.216 209.034 50.488C209.322 50.744 209.722 50.872 210.234 50.872C211.29 50.872 212.17 50.216 212.874 48.904V46.552L210.834 47.272C210.05 47.544 209.482 47.832 209.13 48.136C208.778 48.44 208.602 48.848 208.602 49.36ZM218.529 43.192C218.193 42.408 217.929 41.904 217.737 41.68C217.561 41.44 217.321 41.304 217.017 41.272V40.624H221.721V41.272C220.729 41.288 220.233 41.576 220.233 42.136C220.233 42.392 220.345 42.808 220.569 43.384L223.185 50.08L225.849 43.288C226.073 42.712 226.185 42.304 226.185 42.064C226.185 41.776 226.065 41.576 225.825 41.464C225.585 41.352 225.193 41.288 224.649 41.272V40.624H228.513V41.272C228.209 41.304 227.953 41.416 227.745 41.608C227.537 41.8 227.313 42.216 227.073 42.856L223.401 52.096H222.177L218.529 43.192ZM234.635 52.336C233.083 52.336 231.843 51.816 230.915 50.776C230.003 49.72 229.547 48.296 229.547 46.504C229.547 44.648 230.011 43.16 230.939 42.04C231.867 40.904 233.107 40.336 234.659 40.336C236.051 40.336 237.123 40.76 237.875 41.608C238.627 42.456 238.995 43.616 238.979 45.088H231.251C231.235 45.248 231.227 45.496 231.227 45.832C231.227 47.24 231.563 48.344 232.235 49.144C232.923 49.944 233.835 50.344 234.971 50.344C236.555 50.344 237.627 49.656 238.187 48.28L238.859 48.472C238.587 49.752 238.115 50.72 237.443 51.376C236.771 52.016 235.835 52.336 234.635 52.336ZM231.395 44.176H237.011C237.011 43.28 236.803 42.568 236.387 42.04C235.987 41.496 235.347 41.224 234.467 41.224C233.731 41.224 233.083 41.48 232.523 41.992C231.979 42.504 231.603 43.232 231.395 44.176ZM241.345 52V50.296L248.473 42.328H244.873C243.673 42.328 242.929 42.432 242.641 42.64C242.353 42.848 242.153 43.424 242.041 44.368H241.105V40.624H249.913V42.328L242.785 50.296H246.865C247.905 50.296 248.577 50.152 248.881 49.864C249.201 49.56 249.433 48.856 249.577 47.752H250.537L250.345 52H241.345Z" fill="white"/>
    <path d="M668.638 199H643.87V195.99C647.482 195.875 649.718 195.445 650.578 194.7C651.438 193.897 651.868 191.919 651.868 188.766V150.754C651.868 147.601 651.438 145.651 650.578 144.906C649.718 144.103 647.482 143.645 643.87 143.53V140.52H667.606C678.671 140.52 687.271 143.129 693.406 148.346C699.541 153.506 702.608 160.787 702.608 170.19C702.608 179.134 699.569 186.186 693.492 191.346C687.472 196.449 679.187 199 668.638 199ZM669.842 195.56C676.493 195.56 681.882 193.238 686.01 188.594C690.195 183.893 692.288 177.787 692.288 170.276C692.288 162.135 689.966 155.742 685.322 151.098C680.735 146.454 674.429 144.132 666.402 144.132H660.812V186.444C660.812 189.769 661.471 192.12 662.79 193.496C664.166 194.872 666.517 195.56 669.842 195.56ZM744.518 174.232H717.772C717.714 174.691 717.686 175.436 717.686 176.468C717.686 181.112 718.832 184.839 721.126 187.648C723.476 190.457 726.601 191.862 730.5 191.862C733.022 191.862 735.258 191.26 737.208 190.056C739.157 188.852 740.59 187.189 741.508 185.068L744.26 185.842C743.342 190.715 741.651 194.327 739.186 196.678C736.72 199.029 733.28 200.204 728.866 200.204C723.19 200.204 718.689 198.341 715.364 194.614C712.038 190.83 710.376 185.813 710.376 179.564C710.376 172.799 712.01 167.381 715.278 163.31C718.603 159.239 723.132 157.204 728.866 157.204C733.911 157.204 737.781 158.695 740.476 161.676C743.228 164.6 744.575 168.785 744.518 174.232ZM727.92 160.73C725.512 160.73 723.448 161.59 721.728 163.31C720.008 164.973 718.832 167.381 718.202 170.534H736.09C736.09 167.495 735.402 165.116 734.026 163.396C732.707 161.619 730.672 160.73 727.92 160.73ZM785.502 174.232H758.756C758.699 174.691 758.67 175.436 758.67 176.468C758.67 181.112 759.817 184.839 762.11 187.648C764.461 190.457 767.585 191.862 771.484 191.862C774.007 191.862 776.243 191.26 778.192 190.056C780.141 188.852 781.575 187.189 782.492 185.068L785.244 185.842C784.327 190.715 782.635 194.327 780.17 196.678C777.705 199.029 774.265 200.204 769.85 200.204C764.174 200.204 759.673 198.341 756.348 194.614C753.023 190.83 751.36 185.813 751.36 179.564C751.36 172.799 752.994 167.381 756.262 163.31C759.587 159.239 764.117 157.204 769.85 157.204C774.895 157.204 778.765 158.695 781.46 161.676C784.212 164.6 785.559 168.785 785.502 174.232ZM768.904 160.73C766.496 160.73 764.432 161.59 762.712 163.31C760.992 164.973 759.817 167.381 759.186 170.534H777.074C777.074 167.495 776.386 165.116 775.01 163.396C773.691 161.619 771.656 160.73 768.904 160.73ZM817.198 157.204C821.842 157.204 825.598 159.039 828.464 162.708C831.388 166.377 832.85 171.337 832.85 177.586C832.85 184.695 831.216 190.257 827.948 194.27C824.68 198.226 820.008 200.204 813.93 200.204C809.688 200.204 806.362 199.229 803.954 197.28V206.826C803.954 209.75 804.47 211.642 805.502 212.502C806.592 213.362 809.086 213.907 812.984 214.136V216.716H790.624V214.136C793.09 213.907 794.666 213.362 795.354 212.502C796.042 211.642 796.386 209.75 796.386 206.826V168.9C796.386 166.435 796.014 164.829 795.268 164.084C794.523 163.281 792.975 162.88 790.624 162.88V160.644L801.546 157.72H803.954V165.46C807.05 159.956 811.465 157.204 817.198 157.204ZM813.328 196.592C816.94 196.592 819.692 195.159 821.584 192.292C823.476 189.368 824.422 185.269 824.422 179.994C824.422 175.006 823.505 171.107 821.67 168.298C819.836 165.489 817.313 164.084 814.102 164.084C810.261 164.084 806.878 165.718 803.954 168.986V184.638C803.954 188.422 804.814 191.375 806.534 193.496C808.254 195.56 810.519 196.592 813.328 196.592ZM691.428 297H643.87V293.99C647.482 293.875 649.718 293.445 650.578 292.7C651.438 291.897 651.868 289.919 651.868 286.766V248.754C651.868 245.601 651.438 243.651 650.578 242.906C649.718 242.103 647.482 241.645 643.87 241.53V238.52H669.756V241.53C665.743 241.587 663.249 242.017 662.274 242.82C661.299 243.623 660.812 245.601 660.812 248.754V286.25C660.812 288.945 661.357 290.779 662.446 291.754C663.593 292.729 665.685 293.216 668.724 293.216H676.55C679.646 293.216 682.169 292.155 684.118 290.034C686.067 287.855 687.816 283.355 689.364 276.532H693.664L691.428 297ZM733.432 272.232H706.686C706.628 272.691 706.6 273.436 706.6 274.468C706.6 279.112 707.746 282.839 710.04 285.648C712.39 288.457 715.515 289.862 719.414 289.862C721.936 289.862 724.172 289.26 726.122 288.056C728.071 286.852 729.504 285.189 730.422 283.068L733.174 283.842C732.256 288.715 730.565 292.327 728.1 294.678C725.634 297.029 722.194 298.204 717.78 298.204C712.104 298.204 707.603 296.341 704.278 292.614C700.952 288.83 699.29 283.813 699.29 277.564C699.29 270.799 700.924 265.381 704.192 261.31C707.517 257.239 712.046 255.204 717.78 255.204C722.825 255.204 726.695 256.695 729.39 259.676C732.142 262.6 733.489 266.785 733.432 272.232ZM716.834 258.73C714.426 258.73 712.362 259.59 710.642 261.31C708.922 262.973 707.746 265.381 707.116 268.534H725.004C725.004 265.495 724.316 263.116 722.94 261.396C721.621 259.619 719.586 258.73 716.834 258.73ZM776.738 287.54L779.318 288.228C778.859 291.496 778.028 293.933 776.824 295.538C775.677 297.086 773.757 297.86 771.062 297.86C766.59 297.86 764.01 295.423 763.322 290.55C762.061 293.015 760.398 294.907 758.334 296.226C756.27 297.545 754.063 298.204 751.712 298.204C748.731 298.204 746.323 297.373 744.488 295.71C742.653 294.047 741.736 291.811 741.736 289.002C741.736 286.078 742.711 283.756 744.66 282.036C746.609 280.259 749.648 278.711 753.776 277.392L763.15 274.468V270.512C763.15 263.804 760.083 260.45 753.948 260.45C750.795 260.45 748.215 261.023 746.208 262.17C746.38 263.431 747.125 264.779 748.444 266.212C749.82 267.588 750.508 268.849 750.508 269.996C750.508 271.315 749.992 272.461 748.96 273.436C747.928 274.353 746.667 274.812 745.176 274.812C743.571 274.812 742.281 274.267 741.306 273.178C740.331 272.031 739.844 270.569 739.844 268.792C739.844 265.18 741.65 262.027 745.262 259.332C748.874 256.58 752.83 255.204 757.13 255.204C761.258 255.204 764.555 256.351 767.02 258.644C769.485 260.88 770.718 264.435 770.718 269.308V288.056C770.718 290.751 771.521 292.098 773.126 292.098C774.731 292.098 775.935 290.579 776.738 287.54ZM755.152 292.098C758.191 292.098 760.857 290.235 763.15 286.508V278.166L757.13 280.316C754.493 281.233 752.601 282.179 751.454 283.154C750.307 284.071 749.734 285.39 749.734 287.11C749.734 288.658 750.221 289.891 751.196 290.808C752.171 291.668 753.489 292.098 755.152 292.098ZM807.098 255.204C808.875 255.204 810.337 255.72 811.484 256.752C812.688 257.784 813.29 259.16 813.29 260.88C813.29 262.543 812.774 263.919 811.742 265.008C810.71 266.04 809.477 266.556 808.044 266.556C806.783 266.556 805.607 265.868 804.518 264.492C803.486 263.059 802.655 262.199 802.024 261.912C799.329 264.836 797.208 268.993 795.66 274.382V287.97C795.66 290.435 796.119 292.069 797.036 292.872C798.011 293.675 799.989 294.191 802.97 294.42V297H782.33V294.42C784.738 294.191 786.286 293.675 786.974 292.872C787.719 292.069 788.092 290.435 788.092 287.97V266.9C788.092 264.435 787.719 262.829 786.974 262.084C786.229 261.281 784.681 260.88 782.33 260.88V258.644L793.252 255.72H795.66V268.362C796.749 264.922 798.297 261.883 800.304 259.246C802.311 256.551 804.575 255.204 807.098 255.204ZM855.959 269.308V287.97C855.959 290.435 856.303 292.069 856.991 292.872C857.737 293.675 859.313 294.191 861.721 294.42V297H842.973V294.42C845.267 294.191 846.729 293.703 847.359 292.958C848.047 292.155 848.391 290.493 848.391 287.97V270.77C848.391 264.979 845.869 262.084 840.823 262.084C837.154 262.084 833.857 263.718 830.933 266.986V287.97C830.933 290.435 831.277 292.069 831.965 292.872C832.711 293.675 834.23 294.191 836.523 294.42V297H817.603V294.42C820.011 294.191 821.559 293.675 822.247 292.872C822.993 292.069 823.365 290.435 823.365 287.97V266.9C823.365 264.435 822.993 262.829 822.247 262.084C821.502 261.281 819.954 260.88 817.603 260.88V258.644L828.525 255.72H830.933V263.46C833.915 257.956 838.215 255.204 843.833 255.204C847.732 255.204 850.713 256.408 852.777 258.816C854.899 261.167 855.959 264.664 855.959 269.308ZM880.586 247.55C879.554 248.582 878.207 249.098 876.544 249.098C874.882 249.098 873.506 248.582 872.416 247.55C871.384 246.461 870.868 245.085 870.868 243.422C870.868 241.759 871.384 240.412 872.416 239.38C873.506 238.291 874.882 237.746 876.544 237.746C878.207 237.746 879.554 238.291 880.586 239.38C881.676 240.412 882.22 241.759 882.22 243.422C882.22 245.085 881.676 246.461 880.586 247.55ZM886.95 297H866.482V294.42C869.177 294.248 870.926 293.761 871.728 292.958C872.531 292.098 872.932 290.149 872.932 287.11V266.9C872.932 264.435 872.502 262.829 871.642 262.084C870.84 261.281 869.12 260.88 866.482 260.88V258.644L878.092 255.72H880.5V287.11C880.5 290.149 880.902 292.098 881.704 292.958C882.507 293.761 884.256 294.248 886.95 294.42V297ZM930.454 269.308V287.97C930.454 290.435 930.798 292.069 931.486 292.872C932.231 293.675 933.808 294.191 936.216 294.42V297H917.468V294.42C919.761 294.191 921.223 293.703 921.854 292.958C922.542 292.155 922.886 290.493 922.886 287.97V270.77C922.886 264.979 920.363 262.084 915.318 262.084C911.648 262.084 908.352 263.718 905.428 266.986V287.97C905.428 290.435 905.772 292.069 906.46 292.872C907.205 293.675 908.724 294.191 911.018 294.42V297H892.098V294.42C894.506 294.191 896.054 293.675 896.742 292.872C897.487 292.069 897.86 290.435 897.86 287.97V266.9C897.86 264.435 897.487 262.829 896.742 262.084C895.996 261.281 894.448 260.88 892.098 260.88V258.644L903.02 255.72H905.428V263.46C908.409 257.956 912.709 255.204 918.328 255.204C922.226 255.204 925.208 256.408 927.272 258.816C929.393 261.167 930.454 264.664 930.454 269.308ZM966.346 256.236H981.654V262.944H974.344C975.262 264.721 975.72 266.757 975.72 269.05C975.72 273.235 974.258 276.589 971.334 279.112C968.41 281.635 964.512 282.896 959.638 282.896C956.657 282.896 954.02 282.409 951.726 281.434C949.834 282.867 948.888 284.243 948.888 285.562C948.888 288.199 950.694 289.518 954.306 289.518H969.442C977.584 289.518 981.654 293.044 981.654 300.096C981.654 304.855 979.705 308.61 975.806 311.362C971.965 314.171 966.633 315.576 959.81 315.576C954.134 315.576 949.49 314.544 945.878 312.48C942.324 310.473 940.546 307.836 940.546 304.568C940.546 301.243 942.754 298.577 947.168 296.57C943.556 295.366 941.75 292.987 941.75 289.432C941.75 285.648 944.302 282.581 949.404 280.23C945.506 277.707 943.556 273.981 943.556 269.05C943.556 264.865 945.018 261.511 947.942 258.988C950.866 256.465 954.765 255.204 959.638 255.204C962.104 255.204 964.34 255.548 966.346 256.236ZM960.068 279.456C962.304 279.456 964.11 278.653 965.486 277.048C966.92 275.385 967.636 272.949 967.636 269.738C967.636 266.642 966.948 264.033 965.572 261.912C964.196 259.733 962.075 258.644 959.208 258.644C956.972 258.644 955.138 259.475 953.704 261.138C952.328 262.743 951.64 265.151 951.64 268.362C951.64 271.458 952.328 274.095 953.704 276.274C955.08 278.395 957.202 279.456 960.068 279.456ZM966.518 297.344H952.672C952.386 297.344 951.956 297.315 951.382 297.258C950.866 297.258 950.494 297.258 950.264 297.258C948.544 299.093 947.684 301.157 947.684 303.45C947.684 306.145 948.745 308.237 950.866 309.728C953.045 311.219 956.198 311.964 960.326 311.964C964.798 311.964 968.296 311.133 970.818 309.47C973.398 307.807 974.688 305.657 974.688 303.02C974.688 299.236 971.965 297.344 966.518 297.344ZM1001.01 267.33C999.923 268.419 998.547 268.964 996.884 268.964C995.221 268.964 993.845 268.419 992.756 267.33C991.667 266.241 991.122 264.865 991.122 263.202C991.122 261.482 991.667 260.077 992.756 258.988C993.845 257.841 995.221 257.268 996.884 257.268C998.547 257.268 999.923 257.841 1001.01 258.988C1002.1 260.077 1002.65 261.482 1002.65 263.202C1002.65 264.865 1002.1 266.241 1001.01 267.33ZM1001.01 296.226C999.923 297.315 998.547 297.86 996.884 297.86C995.221 297.86 993.845 297.315 992.756 296.226C991.667 295.137 991.122 293.761 991.122 292.098C991.122 290.378 991.667 288.973 992.756 287.884C993.845 286.737 995.221 286.164 996.884 286.164C998.547 286.164 999.923 286.737 1001.01 287.884C1002.1 288.973 1002.65 290.378 1002.65 292.098C1002.65 293.761 1002.1 295.137 1001.01 296.226ZM675.776 396.204C666.259 396.204 658.633 393.481 652.9 388.034C647.167 382.53 644.3 375.249 644.3 366.19C644.3 357.131 647.224 349.735 653.072 344.002C658.92 338.211 666.431 335.316 675.604 335.316C678.356 335.316 680.993 335.603 683.516 336.176C686.096 336.749 688.131 337.351 689.622 337.982C691.113 338.555 691.973 338.842 692.202 338.842C692.775 338.842 693.148 338.67 693.32 338.326C693.549 337.982 693.75 337.237 693.922 336.09H697.792V354.752H693.492C691.6 344.432 685.551 339.272 675.346 339.272C669.039 339.272 663.994 341.68 660.21 346.496C656.483 351.255 654.62 357.676 654.62 365.76C654.62 374.016 656.598 380.495 660.554 385.196C664.51 389.897 669.957 392.248 676.894 392.248C686.583 392.248 692.632 386.343 695.04 374.532H699.34L698.738 390.786C691.915 394.398 684.261 396.204 675.776 396.204ZM741.414 390.356C737.802 394.255 732.986 396.204 726.966 396.204C720.946 396.204 716.13 394.255 712.518 390.356C708.906 386.457 707.1 381.269 707.1 374.79C707.1 368.254 708.906 363.037 712.518 359.138C716.13 355.182 720.946 353.204 726.966 353.204C732.986 353.204 737.802 355.153 741.414 359.052C745.026 362.951 746.832 368.139 746.832 374.618C746.832 381.154 745.026 386.4 741.414 390.356ZM727.826 392.592C730.521 392.592 732.843 391.302 734.792 388.722C736.799 386.142 737.802 382.043 737.802 376.424C737.802 371.092 736.77 366.505 734.706 362.664C732.642 358.765 729.775 356.816 726.106 356.816C723.411 356.816 721.061 358.106 719.054 360.686C717.105 363.266 716.13 367.365 716.13 372.984C716.13 378.316 717.162 382.931 719.226 386.83C721.29 390.671 724.157 392.592 727.826 392.592ZM791.207 367.308V385.97C791.207 388.435 791.551 390.069 792.239 390.872C792.985 391.675 794.561 392.191 796.969 392.42V395H778.221V392.42C780.515 392.191 781.977 391.703 782.607 390.958C783.295 390.155 783.639 388.493 783.639 385.97V368.77C783.639 362.979 781.117 360.084 776.071 360.084C772.402 360.084 769.105 361.718 766.181 364.986V385.97C766.181 388.435 766.525 390.069 767.213 390.872C767.959 391.675 769.478 392.191 771.771 392.42V395H752.851V392.42C755.259 392.191 756.807 391.675 757.495 390.872C758.241 390.069 758.613 388.435 758.613 385.97V364.9C758.613 362.435 758.241 360.829 757.495 360.084C756.75 359.281 755.202 358.88 752.851 358.88V356.644L763.773 353.72H766.181V361.46C769.163 355.956 773.463 353.204 779.081 353.204C782.98 353.204 785.961 354.408 788.025 356.816C790.147 359.167 791.207 362.664 791.207 367.308ZM825.949 356.816V354.236H840.397V356.816C839.25 356.931 838.247 357.361 837.387 358.106C836.527 358.851 835.638 360.428 834.721 362.836L821.821 395.258H816.661L804.105 364.384C802.843 361.288 801.84 359.281 801.095 358.364C800.349 357.447 799.403 356.931 798.257 356.816V354.236H816.403V356.816C813.135 356.931 811.501 358.02 811.501 360.084C811.501 360.944 811.816 362.234 812.447 363.954L821.047 386.83L830.077 363.868C830.765 362.148 831.109 360.801 831.109 359.826C831.109 358.737 830.707 357.991 829.905 357.59C829.102 357.131 827.783 356.873 825.949 356.816ZM878.141 390.356C874.529 394.255 869.713 396.204 863.693 396.204C857.673 396.204 852.857 394.255 849.245 390.356C845.633 386.457 843.827 381.269 843.827 374.79C843.827 368.254 845.633 363.037 849.245 359.138C852.857 355.182 857.673 353.204 863.693 353.204C869.713 353.204 874.529 355.153 878.141 359.052C881.753 362.951 883.559 368.139 883.559 374.618C883.559 381.154 881.753 386.4 878.141 390.356ZM864.553 392.592C867.247 392.592 869.569 391.302 871.519 388.722C873.525 386.142 874.529 382.043 874.529 376.424C874.529 371.092 873.497 366.505 871.433 362.664C869.369 358.765 866.502 356.816 862.833 356.816C860.138 356.816 857.787 358.106 855.781 360.686C853.831 363.266 852.857 367.365 852.857 372.984C852.857 378.316 853.889 382.931 855.953 386.83C858.017 390.671 860.883 392.592 864.553 392.592ZM902.326 385.11C902.326 388.149 902.728 390.098 903.53 390.958C904.333 391.761 906.082 392.248 908.776 392.42V395H888.308V392.42C891.003 392.248 892.752 391.761 893.554 390.958C894.357 390.098 894.758 388.149 894.758 385.11V345.12C894.758 342.827 894.386 341.336 893.64 340.648C892.895 339.903 891.347 339.53 888.996 339.53V337.294L900.262 333.94H902.326V385.11ZM949.376 354.236V384.852C949.376 387.489 949.777 389.209 950.58 390.012C951.44 390.757 953.217 391.13 955.912 391.13V393.71L943.012 395.516L941.808 394.57V387.948C940.26 390.815 938.511 392.907 936.562 394.226C934.612 395.545 932.204 396.204 929.338 396.204C925.668 396.204 922.744 395 920.566 392.592C918.387 390.184 917.298 386.687 917.298 382.1V362.062C917.298 360.342 916.954 359.109 916.266 358.364C915.635 357.619 914.431 357.045 912.654 356.644V354.236H924.866V379.778C924.866 383.333 925.468 385.827 926.672 387.26C927.876 388.636 929.682 389.324 932.09 389.324C935.587 389.324 938.826 387.633 941.808 384.25V362.062C941.808 360.055 941.435 358.737 940.69 358.106C940.002 357.418 938.396 356.959 935.874 356.73V354.236H949.376ZM986.363 386.142L988.083 387.69C986.363 390.499 984.614 392.563 982.837 393.882C981.06 395.201 978.938 395.86 976.473 395.86C973.205 395.86 970.654 394.857 968.819 392.85C966.984 390.786 966.067 387.919 966.067 384.25V360.944H958.929V357.418C962.025 357.017 964.49 355.927 966.325 354.15C968.217 352.315 969.392 349.936 969.851 347.012H973.635V354.236H985.417V360.944H973.635V382.358C973.635 387.059 975.527 389.41 979.311 389.41C981.948 389.41 984.299 388.321 986.363 386.142ZM1006.48 345.55C1005.45 346.582 1004.1 347.098 1002.44 347.098C1000.77 347.098 999.398 346.582 998.309 345.55C997.277 344.461 996.761 343.085 996.761 341.422C996.761 339.759 997.277 338.412 998.309 337.38C999.398 336.291 1000.77 335.746 1002.44 335.746C1004.1 335.746 1005.45 336.291 1006.48 337.38C1007.57 338.412 1008.11 339.759 1008.11 341.422C1008.11 343.085 1007.57 344.461 1006.48 345.55ZM1012.84 395H992.375V392.42C995.07 392.248 996.818 391.761 997.621 390.958C998.424 390.098 998.825 388.149 998.825 385.11V364.9C998.825 362.435 998.395 360.829 997.535 360.084C996.732 359.281 995.012 358.88 992.375 358.88V356.644L1003.98 353.72H1006.39V385.11C1006.39 388.149 1006.79 390.098 1007.6 390.958C1008.4 391.761 1010.15 392.248 1012.84 392.42V395ZM1053.16 390.356C1049.55 394.255 1044.74 396.204 1038.72 396.204C1032.7 396.204 1027.88 394.255 1024.27 390.356C1020.66 386.457 1018.85 381.269 1018.85 374.79C1018.85 368.254 1020.66 363.037 1024.27 359.138C1027.88 355.182 1032.7 353.204 1038.72 353.204C1044.74 353.204 1049.55 355.153 1053.16 359.052C1056.78 362.951 1058.58 368.139 1058.58 374.618C1058.58 381.154 1056.78 386.4 1053.16 390.356ZM1039.58 392.592C1042.27 392.592 1044.59 391.302 1046.54 388.722C1048.55 386.142 1049.55 382.043 1049.55 376.424C1049.55 371.092 1048.52 366.505 1046.46 362.664C1044.39 358.765 1041.53 356.816 1037.86 356.816C1035.16 356.816 1032.81 358.106 1030.8 360.686C1028.85 363.266 1027.88 367.365 1027.88 372.984C1027.88 378.316 1028.91 382.931 1030.98 386.83C1033.04 390.671 1035.91 392.592 1039.58 392.592ZM1102.96 367.308V385.97C1102.96 388.435 1103.3 390.069 1103.99 390.872C1104.73 391.675 1106.31 392.191 1108.72 392.42V395H1089.97V392.42C1092.26 392.191 1093.73 391.703 1094.36 390.958C1095.05 390.155 1095.39 388.493 1095.39 385.97V368.77C1095.39 362.979 1092.87 360.084 1087.82 360.084C1084.15 360.084 1080.86 361.718 1077.93 364.986V385.97C1077.93 388.435 1078.28 390.069 1078.96 390.872C1079.71 391.675 1081.23 392.191 1083.52 392.42V395H1064.6V392.42C1067.01 392.191 1068.56 391.675 1069.25 390.872C1069.99 390.069 1070.36 388.435 1070.36 385.97V364.9C1070.36 362.435 1069.99 360.829 1069.25 360.084C1068.5 359.281 1066.95 358.88 1064.6 358.88V356.644L1075.52 353.72H1077.93V361.46C1080.91 355.956 1085.21 353.204 1090.83 353.204C1094.73 353.204 1097.71 354.408 1099.78 356.816C1101.9 359.167 1102.96 362.664 1102.96 367.308ZM1150.8 385.54L1153.38 386.228C1152.93 389.496 1152.09 391.933 1150.89 393.538C1149.74 395.086 1147.82 395.86 1145.13 395.86C1140.66 395.86 1138.08 393.423 1137.39 388.55C1136.13 391.015 1134.46 392.907 1132.4 394.226C1130.34 395.545 1128.13 396.204 1125.78 396.204C1122.8 396.204 1120.39 395.373 1118.55 393.71C1116.72 392.047 1115.8 389.811 1115.8 387.002C1115.8 384.078 1116.78 381.756 1118.73 380.036C1120.68 378.259 1123.71 376.711 1127.84 375.392L1137.22 372.468V368.512C1137.22 361.804 1134.15 358.45 1128.01 358.45C1124.86 358.45 1122.28 359.023 1120.27 360.17C1120.45 361.431 1121.19 362.779 1122.51 364.212C1123.89 365.588 1124.57 366.849 1124.57 367.996C1124.57 369.315 1124.06 370.461 1123.03 371.436C1121.99 372.353 1120.73 372.812 1119.24 372.812C1117.64 372.812 1116.35 372.267 1115.37 371.178C1114.4 370.031 1113.91 368.569 1113.91 366.792C1113.91 363.18 1115.72 360.027 1119.33 357.332C1122.94 354.58 1126.9 353.204 1131.2 353.204C1135.32 353.204 1138.62 354.351 1141.09 356.644C1143.55 358.88 1144.78 362.435 1144.78 367.308V386.056C1144.78 388.751 1145.59 390.098 1147.19 390.098C1148.8 390.098 1150 388.579 1150.8 385.54ZM1129.22 390.098C1132.26 390.098 1134.92 388.235 1137.22 384.508V376.166L1131.2 378.316C1128.56 379.233 1126.67 380.179 1125.52 381.154C1124.37 382.071 1123.8 383.39 1123.8 385.11C1123.8 386.658 1124.29 387.891 1125.26 388.808C1126.24 389.668 1127.56 390.098 1129.22 390.098ZM1169.98 385.11C1169.98 388.149 1170.39 390.098 1171.19 390.958C1171.99 391.761 1173.74 392.248 1176.43 392.42V395H1155.97V392.42C1158.66 392.248 1160.41 391.761 1161.21 390.958C1162.02 390.098 1162.42 388.149 1162.42 385.11V345.12C1162.42 342.827 1162.04 341.336 1161.3 340.648C1160.55 339.903 1159.01 339.53 1156.65 339.53V337.294L1167.92 333.94H1169.98V385.11ZM682.57 437.53V434.52H703.038V437.53C700.343 437.645 698.595 438.218 697.792 439.25C696.989 440.225 696.588 442.461 696.588 445.958V493.172H690.224L656.426 448.624V480.272C656.426 484.515 656.913 487.181 657.888 488.27C658.863 489.302 661.385 489.875 665.456 489.99V493H643.87V489.99C647.597 489.875 649.89 489.302 650.75 488.27C651.667 487.181 652.126 484.515 652.126 480.272V443.034C649.374 439.651 646.622 437.817 643.87 437.53V434.52H657.974L692.288 480.186V445.958C692.288 442.461 691.686 440.196 690.482 439.164C689.335 438.132 686.698 437.587 682.57 437.53ZM742.334 468.232H715.588C715.531 468.691 715.502 469.436 715.502 470.468C715.502 475.112 716.649 478.839 718.942 481.648C721.293 484.457 724.417 485.862 728.316 485.862C730.839 485.862 733.075 485.26 735.024 484.056C736.973 482.852 738.407 481.189 739.324 479.068L742.076 479.842C741.159 484.715 739.467 488.327 737.002 490.678C734.537 493.029 731.097 494.204 726.682 494.204C721.006 494.204 716.505 492.341 713.18 488.614C709.855 484.83 708.192 479.813 708.192 473.564C708.192 466.799 709.826 461.381 713.094 457.31C716.419 453.239 720.949 451.204 726.682 451.204C731.727 451.204 735.597 452.695 738.292 455.676C741.044 458.6 742.391 462.785 742.334 468.232ZM725.736 454.73C723.328 454.73 721.264 455.59 719.544 457.31C717.824 458.973 716.649 461.381 716.018 464.534H733.906C733.906 461.495 733.218 459.116 731.842 457.396C730.523 455.619 728.488 454.73 725.736 454.73ZM784.178 452.236V482.852C784.178 485.489 784.58 487.209 785.382 488.012C786.242 488.757 788.02 489.13 790.714 489.13V491.71L777.814 493.516L776.61 492.57V485.948C775.062 488.815 773.314 490.907 771.364 492.226C769.415 493.545 767.007 494.204 764.14 494.204C760.471 494.204 757.547 493 755.368 490.592C753.19 488.184 752.1 484.687 752.1 480.1V460.062C752.1 458.342 751.756 457.109 751.068 456.364C750.438 455.619 749.234 455.045 747.456 454.644V452.236H759.668V477.778C759.668 481.333 760.27 483.827 761.474 485.26C762.678 486.636 764.484 487.324 766.892 487.324C770.39 487.324 773.629 485.633 776.61 482.25V460.062C776.61 458.055 776.238 456.737 775.492 456.106C774.804 455.418 773.199 454.959 770.676 454.73V452.236H784.178ZM819.36 451.204C821.137 451.204 822.599 451.72 823.746 452.752C824.95 453.784 825.552 455.16 825.552 456.88C825.552 458.543 825.036 459.919 824.004 461.008C822.972 462.04 821.739 462.556 820.306 462.556C819.044 462.556 817.869 461.868 816.78 460.492C815.748 459.059 814.916 458.199 814.286 457.912C811.591 460.836 809.47 464.993 807.922 470.382V483.97C807.922 486.435 808.38 488.069 809.298 488.872C810.272 489.675 812.25 490.191 815.232 490.42V493H794.592V490.42C797 490.191 798.548 489.675 799.236 488.872C799.981 488.069 800.354 486.435 800.354 483.97V462.9C800.354 460.435 799.981 458.829 799.236 458.084C798.49 457.281 796.942 456.88 794.592 456.88V454.644L805.514 451.72H807.922V464.362C809.011 460.922 810.559 457.883 812.566 455.246C814.572 452.551 816.837 451.204 819.36 451.204ZM867.189 483.54L869.769 484.228C869.31 487.496 868.479 489.933 867.275 491.538C866.128 493.086 864.208 493.86 861.513 493.86C857.041 493.86 854.461 491.423 853.773 486.55C852.512 489.015 850.849 490.907 848.785 492.226C846.721 493.545 844.514 494.204 842.163 494.204C839.182 494.204 836.774 493.373 834.939 491.71C833.104 490.047 832.187 487.811 832.187 485.002C832.187 482.078 833.162 479.756 835.111 478.036C837.06 476.259 840.099 474.711 844.227 473.392L853.601 470.468V466.512C853.601 459.804 850.534 456.45 844.399 456.45C841.246 456.45 838.666 457.023 836.659 458.17C836.831 459.431 837.576 460.779 838.895 462.212C840.271 463.588 840.959 464.849 840.959 465.996C840.959 467.315 840.443 468.461 839.411 469.436C838.379 470.353 837.118 470.812 835.627 470.812C834.022 470.812 832.732 470.267 831.757 469.178C830.782 468.031 830.295 466.569 830.295 464.792C830.295 461.18 832.101 458.027 835.713 455.332C839.325 452.58 843.281 451.204 847.581 451.204C851.709 451.204 855.006 452.351 857.471 454.644C859.936 456.88 861.169 460.435 861.169 465.308V484.056C861.169 486.751 861.972 488.098 863.577 488.098C865.182 488.098 866.386 486.579 867.189 483.54ZM845.603 488.098C848.642 488.098 851.308 486.235 853.601 482.508V474.166L847.581 476.316C844.944 477.233 843.052 478.179 841.905 479.154C840.758 480.071 840.185 481.39 840.185 483.11C840.185 484.658 840.672 485.891 841.647 486.808C842.622 487.668 843.94 488.098 845.603 488.098ZM886.369 483.11C886.369 486.149 886.771 488.098 887.573 488.958C888.376 489.761 890.125 490.248 892.819 490.42V493H872.351V490.42C875.046 490.248 876.795 489.761 877.597 488.958C878.4 488.098 878.801 486.149 878.801 483.11V443.12C878.801 440.827 878.429 439.336 877.683 438.648C876.938 437.903 875.39 437.53 873.039 437.53V435.294L884.305 431.94H886.369V483.11ZM682.57 535.53V532.52H703.038V535.53C700.343 535.645 698.595 536.218 697.792 537.25C696.989 538.225 696.588 540.461 696.588 543.958V591.172H690.224L656.426 546.624V578.272C656.426 582.515 656.913 585.181 657.888 586.27C658.863 587.302 661.385 587.875 665.456 587.99V591H643.87V587.99C647.597 587.875 649.89 587.302 650.75 586.27C651.667 585.181 652.126 582.515 652.126 578.272V541.034C649.374 537.651 646.622 535.817 643.87 535.53V532.52H657.974L692.288 578.186V543.958C692.288 540.461 691.686 538.196 690.482 537.164C689.335 536.132 686.698 535.587 682.57 535.53ZM742.334 566.232H715.588C715.531 566.691 715.502 567.436 715.502 568.468C715.502 573.112 716.649 576.839 718.942 579.648C721.293 582.457 724.417 583.862 728.316 583.862C730.839 583.862 733.075 583.26 735.024 582.056C736.973 580.852 738.407 579.189 739.324 577.068L742.076 577.842C741.159 582.715 739.467 586.327 737.002 588.678C734.537 591.029 731.097 592.204 726.682 592.204C721.006 592.204 716.505 590.341 713.18 586.614C709.855 582.83 708.192 577.813 708.192 571.564C708.192 564.799 709.826 559.381 713.094 555.31C716.419 551.239 720.949 549.204 726.682 549.204C731.727 549.204 735.597 550.695 738.292 553.676C741.044 556.6 742.391 560.785 742.334 566.232ZM725.736 552.73C723.328 552.73 721.264 553.59 719.544 555.31C717.824 556.973 716.649 559.381 716.018 562.534H733.906C733.906 559.495 733.218 557.116 731.842 555.396C730.523 553.619 728.488 552.73 725.736 552.73ZM774.05 582.142L775.77 583.69C774.05 586.499 772.302 588.563 770.524 589.882C768.747 591.201 766.626 591.86 764.16 591.86C760.892 591.86 758.341 590.857 756.506 588.85C754.672 586.786 753.754 583.919 753.754 580.25V556.944H746.616V553.418C749.712 553.017 752.178 551.927 754.012 550.15C755.904 548.315 757.08 545.936 757.538 543.012H761.322V550.236H773.104V556.944H761.322V578.358C761.322 583.059 763.214 585.41 766.998 585.41C769.636 585.41 771.986 584.321 774.05 582.142ZM827.792 552.816V550.236H841.38V552.816C840.291 552.931 839.345 553.447 838.542 554.364C837.74 555.281 836.851 557.03 835.876 559.61L823.922 591.258H818.762L810.162 568.64L801.132 591.258H795.972L784.362 560.47C783.216 557.317 782.298 555.281 781.61 554.364C780.98 553.389 780.034 552.873 778.772 552.816V550.236H795.886V552.816C793.077 552.988 791.672 554.221 791.672 556.514C791.672 557.259 791.844 558.091 792.188 559.008L800.358 582.916L808.184 563.394L806.55 559.008C805.748 556.772 804.945 555.195 804.142 554.278C803.397 553.361 802.336 552.873 800.96 552.816V550.236H818.762V552.816C815.953 552.873 814.548 553.991 814.548 556.17C814.548 557.317 814.978 559.123 815.838 561.588L823.062 582.572L831.576 559.782C832.15 558.119 832.436 556.801 832.436 555.826C832.436 554.737 832.064 553.991 831.318 553.59C830.573 553.131 829.398 552.873 827.792 552.816ZM879.149 586.356C875.537 590.255 870.721 592.204 864.701 592.204C858.681 592.204 853.865 590.255 850.253 586.356C846.641 582.457 844.835 577.269 844.835 570.79C844.835 564.254 846.641 559.037 850.253 555.138C853.865 551.182 858.681 549.204 864.701 549.204C870.721 549.204 875.537 551.153 879.149 555.052C882.761 558.951 884.567 564.139 884.567 570.618C884.567 577.154 882.761 582.4 879.149 586.356ZM865.561 588.592C868.255 588.592 870.577 587.302 872.527 584.722C874.533 582.142 875.537 578.043 875.537 572.424C875.537 567.092 874.505 562.505 872.441 558.664C870.377 554.765 867.51 552.816 863.841 552.816C861.146 552.816 858.795 554.106 856.789 556.686C854.839 559.266 853.865 563.365 853.865 568.984C853.865 574.316 854.897 578.931 856.961 582.83C859.025 586.671 861.891 588.592 865.561 588.592ZM915.354 549.204C917.131 549.204 918.593 549.72 919.74 550.752C920.944 551.784 921.546 553.16 921.546 554.88C921.546 556.543 921.03 557.919 919.998 559.008C918.966 560.04 917.733 560.556 916.3 560.556C915.039 560.556 913.863 559.868 912.774 558.492C911.742 557.059 910.911 556.199 910.28 555.912C907.585 558.836 905.464 562.993 903.916 568.382V581.97C903.916 584.435 904.375 586.069 905.292 586.872C906.267 587.675 908.245 588.191 911.226 588.42V591H890.586V588.42C892.994 588.191 894.542 587.675 895.23 586.872C895.975 586.069 896.348 584.435 896.348 581.97V560.9C896.348 558.435 895.975 556.829 895.23 556.084C894.485 555.281 892.937 554.88 890.586 554.88V552.644L901.508 549.72H903.916V562.362C905.005 558.922 906.553 555.883 908.56 553.246C910.567 550.551 912.831 549.204 915.354 549.204ZM967.665 550.236V552.816C966.117 553.045 964.397 553.791 962.505 555.052C960.613 556.313 958.005 558.463 954.679 561.502L948.401 567.178L961.215 583.174C963.738 586.385 965.888 588.133 967.665 588.42V591H949.949V588.42C952.071 588.248 953.131 587.503 953.131 586.184C953.131 585.439 952.529 584.349 951.325 582.916L942.725 572.338L938.339 576.208V581.11C938.339 583.919 938.683 585.783 939.371 586.7C940.059 587.617 941.579 588.191 943.929 588.42V591H925.009V588.42C927.417 588.248 928.965 587.703 929.653 586.786C930.399 585.869 930.771 583.977 930.771 581.11V541.12C930.771 538.827 930.399 537.336 929.653 536.648C928.908 535.903 927.36 535.53 925.009 535.53V533.294L936.275 529.94H938.339V571.048L951.841 558.922C953.389 557.431 954.163 556.199 954.163 555.224C954.163 553.676 952.644 552.873 949.605 552.816V550.236H967.665Z" fill="white"/>
    <rect x="130" y="532" width="40" height="40" fill="#25C648"/>
    <rect x="170" y="532" width="40" height="40" fill="#257BC6"/>
    <rect x="130" y="492" width="40" height="40" fill="#257BC6"/>
    <rect x="210" y="532" width="40" height="40" fill="#C62525"/>
    <rect x="130" y="452" width="40" height="40" fill="#C62525"/>
    <rect x="250" y="532" width="40" height="40" fill="#25C648"/>
    <rect x="130" y="412" width="40" height="40" fill="#25C648"/>
    <rect x="130" y="292" width="40" height="40" fill="#25C648"/>
    <rect x="130" y="172" width="40" height="40" fill="#25C648"/>
    <rect x="290" y="532" width="40" height="40" fill="#257BC6"/>
    <rect x="130" y="372" width="40" height="40" fill="#257BC6"/>
    <rect x="130" y="252" width="40" height="40" fill="#257BC6"/>
    <rect x="130" y="160" width="40" height="12" fill="#257BC6"/>
    <rect x="330" y="532" width="40" height="40" fill="#C62525"/>
    <rect x="130" y="332" width="40" height="40" fill="#C62525"/>
    <rect x="130" y="212" width="40" height="40" fill="#C62525"/>
    <rect x="170" y="160" width="40" height="12" fill="#C62525"/>
    <rect x="170" y="492" width="40" height="40" fill="#C62525"/>
    <rect x="170" y="452" width="40" height="40" fill="#25C648"/>
    <rect x="170" y="332" width="40" height="40" fill="#25C648"/>
    <rect x="170" y="212" width="40" height="40" fill="#25C648"/>
    <rect x="170" y="412" width="40" height="40" fill="#257BC6"/>
    <rect x="170" y="292" width="40" height="40" fill="#257BC6"/>
    <rect x="170" y="172" width="40" height="40" fill="#257BC6"/>
    <rect x="170" y="372" width="40" height="40" fill="#C62525"/>
    <rect x="170" y="252" width="40" height="40" fill="#C62525"/>
    <rect x="210" y="172" width="40" height="40" fill="#C62525"/>
    <rect x="210" y="492" width="40" height="40" fill="#25C648"/>
    <rect x="210" y="372" width="40" height="40" fill="#25C648"/>
    <rect x="210" y="252" width="40" height="40" fill="#25C648"/>
    <rect x="210" y="160" width="40" height="12" fill="#25C648"/>
    <rect x="210" y="452" width="40" height="40" fill="#257BC6"/>
    <rect x="210" y="332" width="40" height="40" fill="#257BC6"/>
    <rect x="210" y="212" width="40" height="40" fill="#257BC6"/>
    <rect x="210" y="412" width="40" height="40" fill="#C62525"/>
    <rect x="210" y="292" width="40" height="40" fill="#C62525"/>
    <rect x="250" y="492" width="40" height="40" fill="#257BC6"/>
    <rect x="250" y="452" width="40" height="40" fill="#C62525"/>
    <rect x="250" y="412" width="40" height="40" fill="#25C648"/>
    <rect x="250" y="292" width="40" height="40" fill="#25C648"/>
    <rect x="250" y="172" width="40" height="40" fill="#25C648"/>
    <rect x="250" y="372" width="40" height="40" fill="#257BC6"/>
    <rect x="250" y="252" width="40" height="40" fill="#257BC6"/>
    <rect x="250" y="160" width="40" height="12" fill="#257BC6"/>
    <rect x="250" y="332" width="40" height="40" fill="#C62525"/>
    <rect x="250" y="212" width="40" height="40" fill="#C62525"/>
    <rect x="290" y="160" width="40" height="12" fill="#C62525"/>
    <rect x="290" y="492" width="40" height="40" fill="#C62525"/>
    <rect x="290" y="452" width="40" height="40" fill="#25C648"/>
    <rect x="290" y="332" width="40" height="40" fill="#25C648"/>
    <rect x="290" y="212" width="40" height="40" fill="#25C648"/>
    <rect x="290" y="412" width="40" height="40" fill="#257BC6"/>
    <rect x="290" y="292" width="40" height="40" fill="#257BC6"/>
    <rect x="290" y="172" width="40" height="40" fill="#257BC6"/>
    <rect x="290" y="372" width="40" height="40" fill="#C62525"/>
    <rect x="290" y="252" width="40" height="40" fill="#C62525"/>
    <rect x="330" y="172" width="40" height="40" fill="#C62525"/>
    <rect x="330" y="492" width="40" height="40" fill="#25C648"/>
    <rect x="330" y="372" width="40" height="40" fill="#25C648"/>
    <rect x="330" y="252" width="40" height="40" fill="#25C648"/>
    <rect x="330" y="160" width="40" height="12" fill="#25C648"/>
    <rect x="330" y="452" width="40" height="40" fill="#257BC6"/>
    <rect x="330" y="332" width="40" height="40" fill="#257BC6"/>
    <rect x="330" y="212" width="40" height="40" fill="#257BC6"/>
    <rect x="330" y="412" width="40" height="40" fill="#C62525"/>
    <rect x="330" y="292" width="40" height="40" fill="#C62525"/>
    <rect x="370" y="492" width="40" height="40" fill="#257BC6"/>
    <rect x="370" y="452" width="40" height="40" fill="#C62525"/>
    <rect x="370" y="412" width="40" height="40" fill="#25C648"/>
    <rect x="370" y="292" width="40" height="40" fill="#25C648"/>
    <rect x="370" y="172" width="40" height="40" fill="#25C648"/>
    <rect x="370" y="372" width="40" height="40" fill="#257BC6"/>
    <rect x="370" y="252" width="40" height="40" fill="#257BC6"/>
    <rect x="370" y="160" width="40" height="12" fill="#257BC6"/>
    <rect x="370" y="332" width="40" height="40" fill="#C62525"/>
    <rect x="370" y="212" width="40" height="40" fill="#C62525"/>
    <rect x="410" y="160" width="40" height="12" fill="#C62525"/>
    <rect x="410" y="492" width="40" height="40" fill="#C62525"/>
    <rect x="410" y="452" width="40" height="40" fill="#25C648"/>
    <rect x="410" y="332" width="40" height="40" fill="#25C648"/>
    <rect x="410" y="212" width="40" height="40" fill="#25C648"/>
    <rect x="410" y="412" width="40" height="40" fill="#257BC6"/>
    <rect x="410" y="292" width="40" height="40" fill="#257BC6"/>
    <rect x="410" y="172" width="40" height="40" fill="#257BC6"/>
    <rect x="410" y="372" width="40" height="40" fill="#C62525"/>
    <rect x="410" y="252" width="40" height="40" fill="#C62525"/>
    <rect x="450" y="172" width="40" height="40" fill="#C62525"/>
    <rect x="450" y="492" width="40" height="40" fill="#25C648"/>
    <rect x="450" y="372" width="40" height="40" fill="#25C648"/>
    <rect x="450" y="252" width="40" height="40" fill="#25C648"/>
    <rect x="450" y="160" width="40" height="12" fill="#25C648"/>
    <rect x="450" y="452" width="40" height="40" fill="#257BC6"/>
    <rect x="450" y="332" width="40" height="40" fill="#257BC6"/>
    <rect x="450" y="212" width="40" height="40" fill="#257BC6"/>
    <rect x="450" y="412" width="40" height="40" fill="#C62525"/>
    <rect x="450" y="292" width="40" height="40" fill="#C62525"/>
    <rect x="490" y="492" width="40" height="40" fill="#257BC6"/>
    <rect x="490" y="452" width="40" height="40" fill="#C62525"/>
    <rect x="490" y="412" width="40" height="40" fill="#25C648"/>
    <rect x="490" y="292" width="40" height="40" fill="#25C648"/>
    <rect x="490" y="172" width="40" height="40" fill="#25C648"/>
    <rect x="490" y="372" width="40" height="40" fill="#257BC6"/>
    <rect x="490" y="252" width="40" height="40" fill="#257BC6"/>
    <rect x="490" y="160" width="40" height="12" fill="#257BC6"/>
    <rect x="490" y="332" width="40" height="40" fill="#C62525"/>
    <rect x="490" y="212" width="40" height="40" fill="#C62525"/>
    <rect x="530" y="160" width="14" height="12" fill="#C62525"/>
    <rect x="530" y="492" width="14" height="40" fill="#C62525"/>
    <rect x="530" y="452" width="14" height="40" fill="#25C648"/>
    <rect x="530" y="332" width="14" height="40" fill="#25C648"/>
    <rect x="530" y="212" width="14" height="40" fill="#25C648"/>
    <rect x="530" y="412" width="14" height="40" fill="#257BC6"/>
    <rect x="530" y="292" width="14" height="40" fill="#257BC6"/>
    <rect x="530" y="172" width="14" height="40" fill="#257BC6"/>
    <rect x="530" y="372" width="14" height="40" fill="#C62525"/>
    <rect x="530" y="252" width="14" height="40" fill="#C62525"/>
    <rect x="370" y="532" width="40" height="40" fill="#25C648"/>
    <rect x="490" y="532" width="40" height="40" fill="#25C648"/>
    <rect x="410" y="532" width="40" height="40" fill="#257BC6"/>
    <rect x="530" y="532" width="14" height="40" fill="#257BC6"/>
    <rect x="450" y="532" width="40" height="40" fill="#C62525"/>
    </g>
    <defs>
    <clipPath id="clip0_24_2">
    <rect width="1280" height="720" fill="white"/>
    </clipPath>
    </defs>
</svg>